<?xml version="1.0" encoding="utf-8"?>
<!-- Generator: Adobe Illustrator 24.0.0, SVG Export Plug-In . SVG Version: 6.00 Build 0)  -->
<svg version="1.1" id="图层_1" xmlns="http://www.w3.org/2000/svg" xmlns:xlink="http://www.w3.org/1999/xlink" x="0px" y="0px"
	 viewBox="0 0 600 600" style="enable-background:new 0 0 600 600;" xml:space="preserve">
<style type="text/css">
	.st0{fill:#E7352C;}
</style>
<g>
	<path class="st0" d="M209.91,430.16c0,20.74-16.81,37.55-37.55,37.55c-20.74,0-37.55-16.81-37.55-37.55
		c0-20.75,16.81-37.55,37.55-37.55C193.09,392.61,209.91,409.42,209.91,430.16"/>
	<path class="st0" d="M537.82,391.07C513.76,220.37,378.4,85.01,207.7,60.95c-19.99,10.56-38.25,23.89-54.48,39.34v36.32
		c170.34,0,308.92,138.58,308.92,308.93h36.33C513.93,429.31,527.26,411.06,537.82,391.07"/>
	<path class="st0" d="M566.03,277.08c0-134.95-109.4-244.35-244.35-244.35c-8.51,0-16.88,0.55-25.17,1.39l-5.57,16.05
		C411.06,92.14,506.27,187.4,548.35,307.46l16.32-5.71C565.49,293.64,566.03,285.43,566.03,277.08"/>
	<path class="st0" d="M324.45,567.27c-77.59,0-150.53-30.22-205.4-85.08c-54.87-54.87-85.08-127.8-85.08-205.39
		c0-77.58,30.22-150.53,85.08-205.39l15.52,15.51c-50.72,50.73-78.65,118.16-78.65,189.88s27.93,139.16,78.65,189.87
		c50.72,50.73,118.15,78.66,189.88,78.66c71.73,0,139.15-27.93,189.87-78.66l15.51,15.52C474.97,537.05,402.03,567.27,324.45,567.27
		"/>
	<path class="st0" d="M321.29,462.27c6-60.65-20.99-117.1-66.34-151.48c-23.91-18.14-52.96-30.13-85-33.28
		c-8.34-0.88-14.41-8.27-13.61-16.53c0.96-9.06,8.45-14.44,16.61-13.61c34.66,3.54,66.41,15.66,93.25,34.31
		c57.65,39.86,92.6,108.98,85.15,183.59c-1.21,11.8-3.52,23.23-6.68,34.32l44.09,12.44c13.21-3.75,25.99-8.52,38.21-14.35
		c3.15-16.9,4.9-34.31,4.9-52.16c0-139.76-103.34-255.77-237.63-275.66c-16.1-2.31-32.44-2.49-44.45,0.52
		c-18.9,4.77-35.55,15.2-48.05,29.37c-14.77,16.76-23.73,38.76-23.73,62.84c0,42.47,27.81,78.44,66.25,90.64
		c7.21,2.29,18.41,3.28,23.93,4.31h0.22c41.99,7.24,74.09,43.95,74.09,87.98c0,17.71-5.25,34.18-14.18,48.09l30.55,19.56
		c14.69,3.9,29.9,6.52,45.51,7.63C313.32,502.85,319.17,483.17,321.29,462.27"/>
</g>
</svg>
